<?xml version="1.0" encoding="UTF-8"?>
<svg id="Layer_2" data-name="Layer 2" xmlns="http://www.w3.org/2000/svg" viewBox="0 0 46.42 46.42">
  <defs>
    <style>
      .cls-1 {
        fill: #fff;
      }

      .cls-2 {
        fill: #002d6f;
      }
    </style>
  </defs>
  <g id="Design">
    <path class="cls-2" d="m23.21,0C10.39,0,0,10.39,0,23.21c0,12.82,10.39,23.21,23.21,23.21,12.82,0,23.21-10.39,23.21-23.21C46.4,10.4,36.02.01,23.21,0Z"/>
    <g>
      <path class="cls-1" d="m29.67,20.13h-12.92c-1.95,0-2.9-1.38-3.66-2.49-.14-.2-.28-.4-.42-.59-.53-.7-3.58-1.96-5.59-2.64-.3-.1-.48-.4-.43-.71.05-.31.32-.54.63-.54h31.84c.31,0,.58.23.63.54.05.31-.13.61-.43.71-2,.67-5.06,1.94-5.59,2.64-.14.19-.28.39-.42.59-.76,1.11-1.7,2.49-3.66,2.49Z"/>
      <path class="cls-1" d="m29.67,28.76h-12.92c-1.95,0-2.9-1.38-3.66-2.49-.14-.2-.28-.4-.42-.59-.53-.7-3.58-1.96-5.59-2.64-.3-.1-.48-.4-.43-.71.05-.31.32-.54.63-.54h31.84c.31,0,.58.23.63.54.05.31-.13.61-.43.71-2,.67-5.06,1.94-5.59,2.64-.14.19-.28.39-.42.59-.76,1.11-1.7,2.49-3.66,2.49Z"/>
      <path class="cls-1" d="m29.67,37.38h-12.92c-1.95,0-2.9-1.38-3.66-2.49-.14-.2-.28-.4-.42-.59-.53-.7-3.58-1.96-5.59-2.64-.3-.1-.48-.4-.43-.71.05-.31.32-.54.63-.54h31.84c.31,0,.58.23.63.54.05.31-.13.61-.43.71-2,.67-5.06,1.94-5.59,2.64-.14.19-.28.39-.42.59-.76,1.11-1.7,2.49-3.66,2.49Z"/>
    </g>
  </g>
</svg>