<?xml version="1.0" encoding="UTF-8"?>
<svg id="Layer_2" data-name="Layer 2" xmlns="http://www.w3.org/2000/svg" viewBox="0 0 46.08 46.08">
  <defs>
    <style>
      .cls-1 {
        fill: #fff;
      }

      .cls-2 {
        fill: #002d6f;
      }
    </style>
  </defs>
  <g id="Design">
    <path class="cls-2" d="m23.04,0C10.31,0,0,10.32,0,23.04c0,12.72,10.32,23.04,23.04,23.04,12.72,0,23.04-10.32,23.04-23.04C46.06,10.32,35.75.01,23.04,0Z"/>
    <path class="cls-1" d="m28.94,21.78c-.07-.17-.14-.34-.22-.5-.1-.21-.2-.41-.31-.61-1.29-2.32-3.35-3.03-4.66-5.34-.27-.48-.51-.98-.7-1.5-.19.52-.43,1.02-.7,1.5-1.31,2.3-3.37,3.01-4.66,5.34-.11.2-.22.4-.31.61-.08.17-.15.33-.22.5-.4.98-.64,2.05-.62,3.27.05,3.59,2.92,6.49,6.52,6.49s6.47-2.91,6.52-6.49c.02-1.21-.22-2.28-.62-3.27Z"/>
    <path class="cls-1" d="m20.39,36.67c-7.47-1.45-12.36-8.71-10.91-16.18,1.45-7.47,8.71-12.36,16.18-10.91,5.13,1,9.22,4.78,10.63,9.76l-3.51.22,5.09,5.28,4.31-5.89-3.56.24c-1.52-6.04-6.37-10.67-12.53-11.87-8.71-1.69-17.18,4.02-18.87,12.73-1.69,8.71,4.02,17.18,12.73,18.87,1.02.2,2.04.29,3.04.29,7.1,0,13.61-4.76,15.54-11.82l-2.22-.61c-1.9,6.91-8.9,11.24-15.93,9.88Z"/>
  </g>
</svg>