<?xml version="1.0" encoding="UTF-8"?>
<svg id="Layer_2" data-name="Layer 2" xmlns="http://www.w3.org/2000/svg" viewBox="0 0 46.08 46.08">
  <defs>
    <style>
      .cls-1 {
        fill: #fff;
      }

      .cls-2 {
        fill: none;
        stroke: #002d6f;
        stroke-linecap: round;
        stroke-linejoin: round;
        stroke-width: 3.14px;
      }

      .cls-3 {
        fill: #002d6f;
      }
    </style>
  </defs>
  <g id="Design">
    <path class="cls-3" d="m23.04,0C10.31,0,0,10.32,0,23.04c0,12.72,10.32,23.04,23.04,23.04,12.72,0,23.04-10.32,23.04-23.04C46.06,10.32,35.75.01,23.04,0Z"/>
    <path class="cls-1" d="m23.98,26.88c.1-.23.41-.81.66-.97,1.75-1.15,2.96-2.03,4.82-4.13,2.07-2.32,1.66-5.91,1.29-7.54-.46-2.04-1.98-7.77-1.98-7.77-.05-.18-.24-.33-.43-.33h-10.6c-.19,0-.38.15-.43.33,0,0-1.51,5.73-1.98,7.77-.37,1.64-.77,5.2,1.29,7.52,1.86,2.1,3.07,2.99,4.82,4.13.25.16.56.75.66.98.15.34.27,2.61.34,4.94.07,2.02.26,7.09-1.21,8.01-.95.6-1.26.83-4.25,1.34-.28.05-.18.41-.11.41h12.32c.07,0,.16-.36-.11-.41-2.99-.51-3.3-.75-4.25-1.34-1.46-.92-1.27-5.98-1.21-8.01.08-2.32.2-4.59.34-4.93Z"/>
    <g>
      <path class="cls-2" d="m38.85,14.75c-1.47.24-2.86.68-4,1.7-1.02.91-1.55,2.12-1.86,3.42-.12.52-.2,1.04-.3,1.57-.01.07-.04.14-.06.21h-.07c-.08-.42-.15-.84-.23-1.26-.23-1.11-.57-2.17-1.23-3.1-.7-.98-1.65-1.6-2.76-2.03-.89-.34-1.82-.5-2.75-.62-.06-.01-.11-.03-.17-.05v-.07c.32-.05.65-.09.97-.15,1.2-.2,2.35-.54,3.37-1.23,1.14-.77,1.85-1.84,2.23-3.13.22-.73.35-1.49.51-2.24.02-.1.04-.2.07-.29h.07c.06.32.12.65.18.98.18.96.44,1.89.9,2.76.75,1.41,1.95,2.28,3.44,2.74.78.24,1.6.35,2.4.52.06.01.13.02.19.03.01,0,.02.03.04.09-.33.05-.64.09-.95.14h0Z"/>
      <path class="cls-1" d="m38.85,14.75c-1.47.24-2.86.68-4,1.7-1.02.91-1.55,2.12-1.86,3.42-.12.52-.2,1.04-.3,1.57-.01.07-.04.14-.06.21h-.07c-.08-.42-.15-.84-.23-1.26-.23-1.11-.57-2.17-1.23-3.1-.7-.98-1.65-1.6-2.76-2.03-.89-.34-1.82-.5-2.75-.62-.06-.01-.11-.03-.17-.05v-.07c.32-.05.65-.09.97-.15,1.2-.2,2.35-.54,3.37-1.23,1.14-.77,1.85-1.84,2.23-3.13.22-.73.35-1.49.51-2.24.02-.1.04-.2.07-.29h.07c.06.32.12.65.18.98.18.96.44,1.89.9,2.76.75,1.41,1.95,2.28,3.44,2.74.78.24,1.6.35,2.4.52.06.01.13.02.19.03.01,0,.02.03.04.09-.33.05-.64.09-.95.14h0Z"/>
    </g>
  </g>
</svg>