<?xml version="1.0" encoding="UTF-8"?>
<svg id="Layer_2" data-name="Layer 2" xmlns="http://www.w3.org/2000/svg" viewBox="0 0 46.42 46.42">
  <defs>
    <style>
      .cls-1 {
        fill: #fff;
      }

      .cls-2 {
        fill: #002d6f;
      }
    </style>
  </defs>
  <g id="Design">
    <path class="cls-2" d="m23.21,0C10.39,0,0,10.39,0,23.21c0,12.82,10.39,23.21,23.21,23.21,12.82,0,23.21-10.39,23.21-23.21C46.4,10.4,36.02.01,23.21,0Z"/>
    <g>
      <g>
        <path class="cls-1" d="m31.05,37.47h-15.68c-1.56,0-3-1.07-3.74-2.8l-4.1-9.52c-.29-.66.1-1.47.7-1.47h29.97c.6,0,.98.8.7,1.47l-4.1,9.52c-.74,1.72-2.18,2.8-3.74,2.8Z"/>
        <rect class="cls-2" x="18.46" y="25.85" width="9.5" height="1.91"/>
      </g>
      <path class="cls-1" d="m29.27,13.84c-1.43.23-2.78.66-3.88,1.65-.99.89-1.51,2.06-1.81,3.33-.12.5-.2,1.02-.29,1.52-.01.07-.04.13-.06.2h-.07c-.07-.41-.14-.82-.23-1.22-.22-1.08-.55-2.11-1.2-3.02-.68-.95-1.61-1.56-2.68-1.97-.86-.33-1.77-.49-2.68-.6-.05-.01-.11-.03-.16-.05v-.07c.31-.05.63-.09.94-.14,1.17-.2,2.28-.53,3.28-1.2,1.11-.75,1.8-1.79,2.17-3.05.21-.71.34-1.45.5-2.18.02-.1.04-.19.06-.29h.07c.06.31.11.63.17.95.18.93.43,1.84.88,2.69.73,1.37,1.89,2.22,3.34,2.67.76.23,1.56.34,2.34.5.06.01.12.02.19.03.01,0,.01.03.04.09-.32.05-.62.09-.93.14h0Z"/>
    </g>
  </g>
</svg>