<?xml version="1.0" encoding="UTF-8"?>
<svg id="Layer_2" data-name="Layer 2" xmlns="http://www.w3.org/2000/svg" viewBox="0 0 46.08 46.08">
  <defs>
    <style>
      .cls-1 {
        fill: #fff;
      }

      .cls-2 {
        fill: #002d6f;
      }
    </style>
  </defs>
  <g id="Design">
    <path class="cls-2" d="m23.04,0C10.31,0,0,10.32,0,23.04c0,12.72,10.32,23.04,23.04,23.04,12.72,0,23.04-10.32,23.04-23.04C46.06,10.32,35.75.01,23.04,0Z"/>
    <g>
      <g>
        <path class="cls-1" d="m34.03,25.22H11.71c-.32,0-.58-.26-.58-.58V8.37c0-.32.26-.58.58-.58h22.32c.32,0,.58.26.58.58v16.27c0,.32-.26.58-.58.58Zm-21.74-1.15h21.17v-15.12H12.28v15.12Z"/>
        <rect class="cls-1" x="11.71" y="12.57" width="22.87" height="1.15"/>
        <rect class="cls-1" x="13.96" y="9.96" width="3.76" height="1.15"/>
        <rect class="cls-1" x="18.9" y="9.96" width="2.38" height="1.15"/>
      </g>
      <path class="cls-1" d="m33.94,37.69H12.34c-.28,0-.53-.21-.57-.49l-1.92-12.47c-.03-.17.02-.34.13-.46.11-.13.27-.2.44-.2h25.45c.17,0,.33.07.44.2.11.13.16.3.13.46l-1.92,12.47c-.04.28-.29.49-.57.49Zm-21.11-1.15h20.62l1.75-11.32H11.09l1.75,11.32Z"/>
      <rect class="cls-1" x="19.8" y="26.27" width="6.68" height="1.15"/>
      <g>
        <g>
          <path class="cls-1" d="m12.19,24.71c-.03-.28-.05-.56-.05-.85,0-4.01,3.26-7.28,7.28-7.28s7.28,3.26,7.28,7.28c0,.28-.02.56-.05.84l-1.15-.13c.03-.23.04-.47.04-.71,0-3.38-2.75-6.12-6.12-6.12s-6.12,2.75-6.12,6.12c0,.24.01.48.04.71l-1.15.13Z"/>
          <path class="cls-1" d="m23.03,22.53c-.56-1.51-2.01-2.52-3.61-2.52v-1.15c2.09,0,3.97,1.31,4.7,3.27l-1.08.4Z"/>
        </g>
        <g>
          <path class="cls-1" d="m33.56,24.7l-1.15-.13c.02-.17.03-.34.03-.52,0-2.48-2.02-4.49-4.49-4.49-.95,0-1.86.29-2.63.85l-.68-.93c.97-.7,2.11-1.07,3.31-1.07,3.11,0,5.65,2.53,5.65,5.65,0,.22-.01.44-.04.65Z"/>
          <path class="cls-1" d="m30.55,23.09c-.4-1.08-1.45-1.81-2.6-1.81v-1.15c1.64,0,3.12,1.03,3.68,2.57l-1.08.4Z"/>
        </g>
      </g>
    </g>
  </g>
</svg>