<?xml version="1.0" encoding="UTF-8"?>
<svg id="Layer_2" data-name="Layer 2" xmlns="http://www.w3.org/2000/svg" viewBox="0 0 46.08 46.08">
  <defs>
    <style>
      .cls-1 {
        fill: #fff;
      }

      .cls-2 {
        fill: #002d6f;
      }
    </style>
  </defs>
  <g id="Design">
    <g>
      <path class="cls-2" d="m23.04,0C10.31,0,0,10.32,0,23.04c0,12.72,10.32,23.04,23.04,23.04,12.72,0,23.04-10.32,23.04-23.04C46.06,10.32,35.75.01,23.04,0Z"/>
      <path class="cls-1" d="m33.19,20.94c-.12-.29-.25-.58-.38-.87-.17-.35-.35-.7-.54-1.05-2.21-3.99-5.77-5.22-8.01-9.18-.47-.82-.88-1.68-1.21-2.58-.33.9-.74,1.75-1.21,2.58-2.25,3.96-5.8,5.19-8.01,9.18-.19.34-.37.69-.54,1.05-.14.28-.26.57-.38.87-.69,1.69-1.1,3.54-1.07,5.62.09,6.17,5.02,11.17,11.22,11.17s11.13-5,11.22-11.17c.03-2.08-.38-3.93-1.07-5.62Z"/>
    </g>
  </g>
</svg>