<?xml version="1.0" encoding="UTF-8"?>
<svg id="Layer_2" data-name="Layer 2" xmlns="http://www.w3.org/2000/svg" viewBox="0 0 46.08 46.08">
  <defs>
    <style>
      .cls-1 {
        fill: #fff;
      }

      .cls-2 {
        fill: #002d6f;
      }
    </style>
  </defs>
  <g id="Design">
    <path class="cls-2" d="m23.04,0C10.31,0,0,10.32,0,23.04c0,12.72,10.32,23.04,23.04,23.04,12.72,0,23.04-10.32,23.04-23.04C46.06,10.32,35.75.01,23.04,0Z"/>
    <g>
      <path class="cls-1" d="m43.1,26.33c-1.11,0-1.64-.51-2.49-1.4-.9-.95-2.02-2.14-4.2-2.14s-3.3,1.19-4.2,2.14c-.84.89-1.38,1.4-2.49,1.4s-1.64-.51-2.49-1.4c-.9-.95-2.02-2.14-4.2-2.14s-3.3,1.19-4.2,2.14c-.84.89-1.38,1.4-2.49,1.4s-1.64-.51-2.49-1.4c-.9-.95-2.02-2.14-4.2-2.14s-3.3,1.19-4.2,2.14c-.84.89-1.38,1.4-2.49,1.4-.65,0-1.18.53-1.18,1.18s.53,1.18,1.18,1.18c2.18,0,3.3-1.19,4.2-2.14.84-.89,1.38-1.4,2.49-1.4s1.64.51,2.49,1.4c.9.95,2.02,2.14,4.2,2.14s3.3-1.19,4.2-2.14c.84-.89,1.38-1.4,2.49-1.4s1.64.51,2.49,1.4c.9.95,2.02,2.14,4.2,2.14s3.3-1.19,4.2-2.14c.84-.89,1.38-1.4,2.49-1.4s1.64.51,2.49,1.4c.9.95,2.02,2.14,4.2,2.14.65,0,1.18-.53,1.18-1.18s-.53-1.18-1.18-1.18Z"/>
      <g>
        <path class="cls-1" d="m23.04,37.06c-7.73,0-14.03-6.29-14.03-14.03s6.29-14.03,14.03-14.03,14.03,6.29,14.03,14.03-6.29,14.03-14.03,14.03Zm0-26.81c-7.05,0-12.78,5.73-12.78,12.78s5.73,12.78,12.78,12.78,12.78-5.73,12.78-12.78-5.73-12.78-12.78-12.78Z"/>
        <path class="cls-1" d="m23.04,32.52c-5.23,0-9.48-4.25-9.48-9.48s4.25-9.48,9.48-9.48,9.48,4.25,9.48,9.48-4.25,9.48-9.48,9.48Zm0-17.72c-4.54,0-8.24,3.7-8.24,8.24s3.7,8.24,8.24,8.24,8.24-3.7,8.24-8.24-3.7-8.24-8.24-8.24Z"/>
      </g>
    </g>
  </g>
</svg>