<?xml version="1.0" encoding="UTF-8"?>
<svg id="Layer_2" data-name="Layer 2" xmlns="http://www.w3.org/2000/svg" viewBox="0 0 46.42 46.42">
  <defs>
    <style>
      .cls-1 {
        fill: #fff;
      }

      .cls-2 {
        fill: #002d6f;
      }
    </style>
  </defs>
  <g id="Design">
    <path class="cls-2" d="m23.21,0C10.39,0,0,10.39,0,23.21c0,12.82,10.39,23.21,23.21,23.21,12.82,0,23.21-10.39,23.21-23.21C46.4,10.4,36.02.01,23.21,0Z"/>
    <path class="cls-1" d="m15.32,35.75c0,1.09-.89,1.98-1.98,1.98s-1.98-.89-1.98-1.98l.53-8.99h-1.9c-.29,0-.53-.22-.56-.52-.04-.53-.96-13.05,5.01-17.08.17-.12.39-.13.58-.03.18.1.3.29.3.49v26.12Z"/>
    <path class="cls-1" d="m26.07,17.41c0,.08,0,.81-.49,1.29-.26.26-.6.4-.99.4-.28,0-.48.05-.58.16-.06.06-.07.14-.07.14l.49,16.34c0,1.11-.89,2-1.98,2s-1.98-.89-1.98-1.98l.49-16.35c0-.19-.24-.3-.65-.3s-.74-.14-1-.4c-.48-.48-.49-1.21-.49-1.29v-7.93h1.85v7.26h1.12v-7.26h1.16v7.26h1.12v-7.26h1.99v7.93Z"/>
    <path class="cls-1" d="m34.8,20.08c-.57.31-.68.93-.7,1.05l.49,14.59c0,1.11-.89,2-1.98,2s-1.98-.89-1.98-1.98l.49-14.61c-.02-.13-.13-.75-.7-1.05-1.65-.89-3.01-2.36-1.8-7.12.9-3.53,2.65-4.27,3.96-4.27h.05c1.31,0,3.06.74,3.96,4.27,1.21,4.76-.15,6.23-1.8,7.12Z"/>
  </g>
</svg>