<?xml version="1.0" encoding="UTF-8"?>
<svg id="Layer_2" data-name="Layer 2" xmlns="http://www.w3.org/2000/svg" viewBox="0 0 46.08 46.08">
  <defs>
    <style>
      .cls-1 {
        fill: #fff;
      }

      .cls-2 {
        fill: #002d6f;
      }
    </style>
  </defs>
  <g id="Design">
    <path class="cls-2" d="m23.04,0C10.31,0,0,10.32,0,23.04c0,12.72,10.32,23.04,23.04,23.04,12.72,0,23.04-10.32,23.04-23.04C46.06,10.32,35.75.01,23.04,0Z"/>
    <g>
      <rect class="cls-1" x="27.18" y="18.23" width="3.37" height="1.01"/>
      <path class="cls-1" d="m24.97,29.92v-9.66h-1.01v9.66c-1.72.25-3.04,1.72-3.04,3.5,0,1.95,1.59,3.55,3.55,3.55s3.55-1.59,3.55-3.55c0-1.78-1.32-3.26-3.04-3.5Zm-.51,6.04c-1.4,0-2.53-1.14-2.53-2.53s1.14-2.53,2.53-2.53,2.53,1.14,2.53,2.53-1.14,2.53-2.53,2.53Z"/>
      <path class="cls-1" d="m27,27.9V10.63c0-1.4-1.14-2.53-2.53-2.53s-2.53,1.14-2.53,2.53v4.35l-2.34,2.34c-.21-.13-.44-.23-.7-.29v-2.88l2.5-2.5-.72-.72-1.78,1.78v-2.6h-1.01v2.6l-1.78-1.78-.72.72,2.5,2.5v2.88c-.3.07-.58.2-.82.37l-2.12-2.12v-3.53h-1.01v2.52l-1.84-1.84-.72.72,1.84,1.84h-2.52v1.01h3.53l2.17,2.17c-.09.18-.17.36-.22.56h-3.17l-2.5-2.5-.72.72,1.78,1.78h-2.31v1.01h2.31l-1.78,1.78.72.72,2.5-2.5h3.17c.06.25.16.48.29.7l-2.24,2.24h-3.53v1.01h2.52l-1.63,1.63.72.72,1.63-1.63v2.52h1.01v-3.53l2.24-2.24c.21.13.44.23.7.29v3.17l-2.5,2.5.72.72,1.78-1.78v2.31h1.01v-2.31l1.78,1.78.72-.72-2.5-2.5v-3.17c.2-.05.39-.12.56-.22l2.48,2.48v4.19c-2.17.99-3.55,3.12-3.55,5.52,0,3.35,2.73,6.08,6.08,6.08s6.08-2.73,6.08-6.08c0-2.4-1.38-4.53-3.55-5.52Zm-5.06-11.49v2.32h-1.34c-.06-.25-.16-.48-.29-.7l1.63-1.63Zm-3.55,4.09c-.69,0-1.26-.56-1.26-1.26s.56-1.26,1.26-1.26,1.26.56,1.26,1.26-.56,1.26-1.26,1.26Zm1.83.07c.18-.24.31-.52.37-.82h1.34v2.53l-1.71-1.71Zm4.24,17.92c-2.79,0-5.06-2.27-5.06-5.06,0-3.75,3.55-4.84,3.55-4.84V10.63c0-.84.68-1.52,1.52-1.52s1.52.68,1.52,1.52v17.95s3.55,1.05,3.55,4.84c0,2.79-2.27,5.06-5.06,5.06Z"/>
      <rect class="cls-1" x="28.01" y="12.15" width="2.53" height="1.01"/>
      <rect class="cls-1" x="28.01" y="15.19" width="1.52" height="1.01"/>
      <rect class="cls-1" x="28.01" y="21.27" width="1.52" height="1.01"/>
      <rect class="cls-1" x="28.01" y="24.31" width="2.53" height="1.01"/>
    </g>
  </g>
</svg>