<?xml version="1.0" encoding="UTF-8"?>
<svg id="Layer_2" data-name="Layer 2" xmlns="http://www.w3.org/2000/svg" viewBox="0 0 46.08 46.08">
  <defs>
    <style>
      .cls-1 {
        fill: #fff;
      }

      .cls-2 {
        fill: #002d6f;
      }
    </style>
  </defs>
  <g id="Design">
    <path class="cls-2" d="m23.04,0C10.31,0,0,10.32,0,23.04c0,12.72,10.32,23.04,23.04,23.04,12.72,0,23.04-10.32,23.04-23.04C46.06,10.32,35.75.01,23.04,0Z"/>
    <g>
      <path class="cls-1" d="m17.5,24.34h-6.25c-.55,0-.97.42-.89.89l1.77,10.36c.07.38.44.66.89.66h9.27v-6.81c-2.59-.35-4.61-2.47-4.79-5.11Z"/>
      <path class="cls-1" d="m34.82,24.34h-6.25c-.18,2.63-2.2,4.76-4.78,5.11v6.81h9.18c.44,0,.82-.28.89-.66l1.85-10.36c.08-.47-.34-.9-.89-.9Z"/>
      <circle class="cls-1" cx="23.04" cy="23.95" r="3.82"/>
      <polygon class="cls-1" points="21.83 18.3 23.04 6.46 24.24 18.3 21.83 18.3 21.83 18.3"/>
      <g>
        <polygon class="cls-1" points="27.36 19.64 36.9 11.81 29.06 21.34 27.36 19.64 27.36 19.64"/>
        <polygon class="cls-1" points="17.02 21.34 9.18 11.81 18.72 19.64 17.02 21.34 17.02 21.34"/>
      </g>
    </g>
  </g>
</svg>